
<svg width="100" height="200" viewBox="0 0 100 200" fill="none" xmlns="http://www.w3.org/2000/svg">
  <!-- Main stem -->
  <path d="M50 200V100" stroke="#006400" stroke-width="6"/>
  
  <!-- Leaves -->
  <path d="M50 180C30 160 10 160 0 180" fill="#008000"/>
  <path d="M50 160C30 140 10 140 0 160" fill="#008000"/>
  <path d="M50 140C30 120 10 120 0 140" fill="#008000"/>
  
  <path d="M50 180C70 160 90 160 100 180" fill="#008000"/>
  <path d="M50 160C70 140 90 140 100 160" fill="#008000"/>
  <path d="M50 140C70 120 90 120 100 140" fill="#008000"/>
  
  <!-- Top -->
  <path d="M50 100C30 80 20 70 20 50C20 30 35 20 50 40C65 20 80 30 80 50C80 70 70 80 50 100Z" fill="#008000"/>
</svg>
