
<svg width="100" height="150" viewBox="0 0 100 150" fill="none" xmlns="http://www.w3.org/2000/svg">
  <!-- Main coral structure -->
  <path d="M20 150C20 70 0 100 0 50C0 20 20 0 50 30C80 0 100 20 100 50C100 100 80 70 80 150" fill="#FF6F61"/>
  
  <!-- Coral details -->
  <path d="M40 150C40 100 30 90 30 60C30 40 40 30 50 50C60 30 70 40 70 60C70 90 60 100 60 150" fill="#FF9E80"/>
  
  <!-- Coral branches -->
  <path d="M10 90C10 70 20 60 30 70M90 90C90 70 80 60 70 70" stroke="#FF6F61" stroke-width="4" stroke-linecap="round"/>
</svg>
