
<svg width="60" height="100" viewBox="0 0 60 100" fill="none" xmlns="http://www.w3.org/2000/svg">
  <!-- Head -->
  <circle cx="30" cy="15" r="10" fill="#FFC9A3"/>
  <!-- Face details -->
  <ellipse cx="27" cy="13" rx="1.5" ry="2" fill="#3F3F3F"/>
  <ellipse cx="33" cy="13" rx="1.5" ry="2" fill="#3F3F3F"/>
  <path d="M28 18C28 18 30 20 32 18" stroke="#3F3F3F" stroke-width="1" stroke-linecap="round"/>
  <path d="M22 12 L25 15" stroke="#3F3F3F" stroke-width="1" stroke-linecap="round"/>
  <path d="M35 15 L38 12" stroke="#3F3F3F" stroke-width="1" stroke-linecap="round"/>
  
  <!-- Hair -->
  <path d="M20 9C20 9 23 3 30 3C37 3 40 9 40 9" fill="#5E3605" stroke="#3F2305" stroke-width="1"/>
  
  <!-- Body -->
  <rect x="25" y="25" width="10" height="30" fill="#0066CC"/>
  <path d="M25 35C25 35 30 37 35 35" stroke="#0044AA" stroke-width="1" stroke-linecap="round"/>
  
  <!-- Arms -->
  <rect x="10" y="30" width="15" height="5" fill="#FFC9A3" rx="2.5" ry="2.5"/>
  <rect x="35" y="30" width="20" height="5" fill="#FFC9A3" rx="2.5" ry="2.5"/>
  <path d="M10 32.5C10 32.5 8 30 5 32" stroke="#FFC9A3" stroke-width="2" stroke-linecap="round"/>
  
  <!-- Fishing rod -->
  <rect x="55" y="30" width="3" height="40" fill="#855E42" transform="rotate(15 55 30)"/>
  <path d="M58 32C58 32 60 35 63 34" stroke="#855E42" stroke-width="1"/>
  <path d="M58 37C58 37 60 40 63 39" stroke="#855E42" stroke-width="1"/>
  
  <!-- Legs -->
  <rect x="25" y="55" width="5" height="20" fill="#0044AA" rx="2.5" ry="2.5"/>
  <rect x="35" y="55" width="5" height="20" fill="#0044AA" rx="2.5" ry="2.5"/>
  <path d="M25 75L20 85" stroke="#0044AA" stroke-width="5" stroke-linecap="round"/>
  <path d="M40 75L45 85" stroke="#0044AA" stroke-width="5" stroke-linecap="round"/>
  
  <!-- Hat -->
  <path d="M20 9C20 9 30 -1 40 9" fill="#0066CC"/>
  <ellipse cx="30" cy="8" rx="12" ry="3" fill="#0066CC"/>
  <path d="M24 7L36 7" stroke="#FFFFFF" stroke-width="1" stroke-linecap="round"/>
</svg>
