
<svg width="1000" height="200" viewBox="0 0 1000 200" fill="none" xmlns="http://www.w3.org/2000/svg">
  <!-- Seabed terrain -->
  <path d="M0 100C100 80 200 120 300 90C400 70 500 110 600 80C700 60 800 100 900 70C1000 50 1000 200 0 200Z" fill="#D2B48C"/>
  <!-- Seaweed 1 -->
  <path d="M100 100C110 80 90 60 100 40C110 60 90 80 100 100Z" fill="#008000"/>
  <!-- Seaweed 2 -->
  <path d="M300 90C310 70 290 50 300 30C310 50 290 70 300 90Z" fill="#008000"/>
  <!-- Seaweed 3 -->
  <path d="M500 100C510 80 490 60 500 40C510 60 490 80 500 100Z" fill="#008000"/>
  <!-- Seaweed 4 -->
  <path d="M700 80C710 60 690 40 700 20C710 40 690 60 700 80Z" fill="#008000"/>
  <!-- Rocks -->
  <circle cx="200" cy="110" r="15" fill="#808080"/>
  <circle cx="600" cy="100" r="20" fill="#808080"/>
  <circle cx="800" cy="110" r="15" fill="#808080"/>
</svg>
